<svg xmlns="http://www.w3.org/2000/svg" viewBox="0 0 64 64" aria-hidden="true">
<circle cx="32" cy="32" r="32" fill="#25D366"/>
<path fill="#fff" d="M32.04 10.67c-11.44 0-20.75 9.3-20.75 20.74 0 3.66.96 7.23 2.79 10.37L11.1 53.33l11.83-2.92a20.63 20.63 0 0 0 9.11 2.13h.01c11.44 0 20.75-9.3 20.75-20.74s-9.31-21.13-20.76-21.13Zm0 38.36h-.01a17.2 17.2 0 0 1-8.76-2.4l-.63-.37-7.02 1.73 1.87-6.85-.41-.7a17.23 17.23 0 1 1 14.96 8.59Zm9.45-12.91c-.52-.26-3.07-1.51-3.54-1.68-.47-.17-.82-.26-1.16.26-.35.52-1.34 1.68-1.64 2.03-.3.35-.6.39-1.12.13-.52-.26-2.19-.81-4.17-2.57-1.54-1.37-2.58-3.07-2.88-3.59-.3-.52-.03-.8.23-1.06.24-.24.52-.6.78-.9.26-.3.35-.52.52-.86.17-.35.09-.65-.04-.9-.13-.26-1.16-2.8-1.59-3.84-.42-1.01-.85-.87-1.16-.89l-.99-.02c-.35 0-.9.13-1.38.65-.47.52-1.81 1.77-1.81 4.31s1.86 5 2.12 5.35c.26.35 3.66 5.58 8.87 7.82 1.24.53 2.21.85 2.96 1.09 1.24.39 2.37.34 3.27.21 1-.15 3.07-1.25 3.5-2.46.43-1.21.43-2.25.3-2.46-.13-.22-.47-.35-.99-.61Z"/>
</svg>